<svg width="24" height="24" viewBox="0 0 24 24" fill="none" xmlns="http://www.w3.org/2000/svg">
<path d="M3.71303 18.3607C7.42053 23.1733 14.3085 24.0839 19.0977 20.3945C20.0994 19.6228 20.93 18.711 21.5832 17.7074C17.2841 19.1274 12.3629 17.7619 9.43088 13.9559C6.49884 10.1498 6.434 5.04314 8.90393 1.24856C7.76688 1.62415 6.67334 2.1946 5.67162 2.96629C0.882415 6.65573 0.00552492 13.548 3.71303 18.3607Z" stroke="white" stroke-linejoin="round"/>
<path d="M17.19 8.36703L19.4895 9.94584L21.6894 8.25107L20.9107 10.9216L23.2102 12.5004L20.4294 12.5721L19.6506 15.2426L18.7107 12.6164L15.9299 12.688L18.1298 10.9933L17.19 8.36703Z" stroke="white" stroke-linejoin="round"/>
<path d="M18.8878 2.13677L20.202 3.03913L21.4594 2.0705L21.0143 3.59682L22.3286 4.49918L20.7392 4.54014L20.2941 6.06646L19.7569 4.56545L18.1676 4.60641L19.4249 3.63778L18.8878 2.13677Z" stroke="white" stroke-linejoin="round"/>
<path d="M11.6056 4.75534L13.2086 5.85595L14.7423 4.6745L14.1994 6.53617L15.8024 7.63679L13.8638 7.68674L13.321 9.54841L12.6657 7.71762L10.7272 7.76758L12.2608 6.58613L11.6056 4.75534Z" stroke="white" stroke-linejoin="round"/>
</svg>
